<?xml version="1.0" encoding="UTF-8" standalone="no"?>
<svg
   xmlns:dc="http://purl.org/dc/elements/1.1/"
   xmlns:cc="http://creativecommons.org/ns#"
   xmlns:rdf="http://www.w3.org/1999/02/22-rdf-syntax-ns#"
   xmlns:svg="http://www.w3.org/2000/svg"
   xmlns="http://www.w3.org/2000/svg"
   xmlns:sodipodi="http://sodipodi.sourceforge.net/DTD/sodipodi-0.dtd"
   xmlns:inkscape="http://www.inkscape.org/namespaces/inkscape"
   width="1177.3429"
   height="1415.3461"
   id="svg2"
   version="1.1"
   inkscape:version="0.48.4 r9939"
   sodipodi:docname="silhouette.svg">
  <metadata
     id="metadata14">
    <rdf:RDF>
      <cc:Work
         rdf:about="">
        <dc:format>image/svg+xml</dc:format>
        <dc:type
           rdf:resource="http://purl.org/dc/dcmitype/StillImage" />
      </cc:Work>
    </rdf:RDF>
  </metadata>
  <defs
     id="defs12" />
  <sodipodi:namedview
     pagecolor="#ffffff"
     bordercolor="#666666"
     borderopacity="1"
     objecttolerance="10"
     gridtolerance="10"
     guidetolerance="10"
     inkscape:pageopacity="0"
     inkscape:pageshadow="2"
     inkscape:window-width="640"
     inkscape:window-height="480"
     id="namedview10"
     showgrid="false"
     fit-margin-top="0"
     fit-margin-left="0"
     fit-margin-right="0"
     fit-margin-bottom="0"
     inkscape:zoom="0.19666667"
     inkscape:cx="660.67295"
     inkscape:cy="707.19508"
     inkscape:window-x="65"
     inkscape:window-y="24"
     inkscape:window-maximized="0"
     inkscape:current-layer="svg2" />
  <g
     id="g4"
     transform="matrix(0,1,-1,0,1188.1935,-20.325406)">
    <title
       id="title6">Layer 1</title>
    <g
       transform="matrix(0,-1,1,0,131.094,1335.382)"
       id="layer1">
      <path
         id="path8809"
         d="m 177.87654,1273.014 c -36.93462,-4.7187 -34.47598,-50.9112 -23.74846,-94.3263 0.42551,-1.7218 1.00842,-6.8879 1.29538,-11.4794 0.59621,-9.5389 26.54238,-36.7654 43.43605,-45.5799 l 40.57332,-7.9718 c 29.832,-8.0589 56.27978,-25.0928 85.79108,-33.79 11.36065,-2.1735 31.26699,-8.6625 44.23626,-14.4198 12.96927,-5.7576 34.10202,-13.5269 46.96173,-17.2653 34.25205,-3.0372 43.92905,-23.4357 26.49134,-48.63762 -19.9581,-34.05694 -13.59906,-51.86785 -37.92606,-78.36602 -12.80676,-19.35254 -14.08047,-40.80732 -6.74225,-113.56781 4.54557,-45.06995 5.20743,-49.25971 12.1044,-76.62464 2.31464,-9.18359 4.38523,-27.96838 4.60135,-41.74383 7.95716,-45.1153 4.40909,-131.3656 44.85788,-141.81977 64.49088,-16.66796 130.23569,-60.9385 186.09397,-79.04922 38.13891,-22.90634 10.80652,-74.13345 -12.03675,-127.64807 l -4.80432,-4.80982 c 6.599,100.306 -2.50116,108.4552 -8.27478,98.72461 -2.00824,-3.38473 -9.40985,-5.59323 -7.3952,-38.64801 2.20776,-36.2254 1.33441,-44.14233 -7.94397,-72.00802 -12.18878,-36.60669 -11.06702,-47.20346 -14.98877,-58.44135 l -5.42828,-15.55458 c -5.16297,-10.69684 1.4555,-22.01831 12.86676,-22.00969 5.95404,0.005 6.61773,-5.7321 5.36816,-46.40249 -1.13275,-36.87136 0.0922,-50.38198 5.96081,-65.74899 10.05646,-26.842582 29.8078,-35.688582 48.50373,-46.013205 5.41162,-2.057518 13.979,-12.239422 19.35376,-23.001202 l 14.62188,-34.731472 c 8.6626,-36.552111 23.24946,-80.681404 32.29169,-118.058241 3.21674,-13.98019 5.72119,6.598219 7.83057,11.536161 4.47424,8.123695 21.23395,69.203222 29.47851,107.433672 6.97162,32.325945 18.26484,51.010092 35.0788,58.035398 21.30573,8.902092 43.01105,30.517099 50.60046,50.389899 5.73554,15.01784 6.48969,26.56362 4.21906,64.58385 -1.52069,25.46319 -1.25421,46.04031 0.59228,45.72697 12.95203,-2.1983 14.69001,0.75843 11.79493,20.06502 -1.62024,10.80539 -7.7461,35.69516 -13.61292,55.31052 -8.15179,27.25549 -10.95935,46.96502 -11.90747,83.59292 -0.68256,26.36069 -2.94116,48.49524 -5.01953,49.18802 -7.87561,2.62522 -14.77991,-12.80392 -15.99506,-35.74441 -0.6933,-13.09146 -1.4032,-24.74192 -1.57721,-25.8899 -0.17407,-1.14795 -3.21319,3.25867 -6.75384,9.79236 -18.24011,33.66043 -9.02661,73.2211 15.11426,86.21839 82.24554,31.51345 125.08044,19.59646 165.48224,55.34314 14.92607,13.10553 27.46397,34.13299 32.26267,54.10913 3.6965,15.38678 16.9929,117.51641 27.8691,214.06225 10.0452,89.16754 8.9421,112.40802 -7.116,149.94086 -5.9729,13.96069 -10.6732,30.77362 -10.4453,37.36206 10.8408,56.18113 33.3517,69.86873 91.8004,77.82273 16.8295,2.303 34.1339,6.0784 38.4541,8.3906 4.3202,2.3121 25.8113,7.8986 47.758,12.4141 81.0953,16.6858 110.4837,43.5259 113.9905,104.105 1.6378,28.2895 0.5959,34.4949 -8.9559,53.3445 -333.29104,71.593 -736.05306,83.0918 -1137.06336,31.8587 z M 579.77008,921.21759 c 13.68414,-69.86578 13.2215,-82.68298 -4.53101,-125.5293 -8.08587,-19.51526 -15.41803,-38.55011 -16.29382,-42.29986 -2.20917,-9.45862 -19.21588,-42.32087 -20.9848,-40.54877 -0.79492,0.79663 -5.25104,21.17236 -9.90253,45.27966 -4.65143,24.10718 -12.32312,61.1872 -17.04812,82.39978 -4.72498,21.21265 -8.59092,43.22541 -8.59092,48.91754 0,5.69202 7.23029,21.20929 16.06739,34.48279 8.83691,13.27344 22.3294,34.22534 29.98315,46.55957 16.77631,27.03522 16.16998,27.98938 31.30066,-49.26141 z"
         inkscape:connector-curvature="0"
         style="fill:#000000" />
    </g>
  </g>
</svg>
